<svg width="512" height="512" viewBox="0 0 512 512" fill="none" xmlns="http://www.w3.org/2000/svg">
<g clip-path="url(#clip0_1_505)">
<path fill-rule="evenodd" clip-rule="evenodd" d="M256 0C397.362 0 512 114.638 512 256C512 397.362 397.362 512 256 512C114.638 512 0 397.362 0 256C0 114.638 114.638 0 256 0ZM126.609 348.662L219.271 256L126.609 163.338C121.294 158.021 121.294 149.347 126.609 144.031L144.031 126.609C149.347 121.294 158.021 121.294 163.338 126.609L256 219.271L348.662 126.609C353.979 121.294 362.653 121.294 367.969 126.609L385.391 144.031C390.706 149.347 390.706 158.021 385.391 163.338L292.729 256L385.391 348.662C390.706 353.979 390.706 362.653 385.391 367.969L367.969 385.391C362.653 390.706 353.979 390.706 348.662 385.391L256 292.729L163.338 385.391C158.021 390.706 149.347 390.706 144.031 385.391L126.609 367.969C121.294 362.653 121.294 353.979 126.609 348.662Z" fill="#FF001B"/>
</g>
<defs>
<clipPath id="clip0_1_505">
<rect width="512" height="512" fill="white"/>
</clipPath>
</defs>
</svg>
