<svg width="480" height="480" viewBox="0 0 480 480" fill="none" xmlns="http://www.w3.org/2000/svg">
<path d="M240 0C192.533 0 146.131 14.0758 106.663 40.4473C67.1955 66.8188 36.4341 104.302 18.269 148.156C0.103991 192.01 -4.64881 240.266 4.61164 286.822C13.8721 333.377 36.7299 376.141 70.2945 409.706C103.859 443.27 146.623 466.128 193.178 475.388C239.734 484.649 287.99 479.896 331.844 461.731C375.698 443.566 413.181 412.805 439.553 373.337C465.924 333.869 480 287.468 480 240C480 176.348 454.714 115.303 409.706 70.2944C364.697 25.2856 303.652 0 240 0ZM368 256H112V224H368V256Z" fill="#FC7F4A"/>
</svg>
